# xmcd
#
# Track frame offsets: 
#        150
#        18300
#        34974
#        53156
#        72220
#        91893
#        110330
#        129822
#        147969
#        168490
#        186634
#        204409
#        226121
#        248074
#
# Disc length: 3581 seconds
#
# Revision: 1
# Processed by: cddbd v1.5.2PL0 Copyright (c) Steve Scherf et al.
# Submitted via: ExactAudioCopyFreeDBPlugin 1.0
#
DISCID=ba0dfb0e
DTITLE=Peter Cornelius - Lebenszeichen
DYEAR=2001
DGENRE=Volksmusik
TTITLE0=Du gibst nie wieder auf
TTITLE1=Wenn der Tag in die Nacht geht
TTITLE2=Ganz langsam mehr
TTITLE3=Bei dir schlafen
TTITLE4=Langsam tanzen
TTITLE5=Ich lieb dich wahrscheinlich unwahrscheinlich
TTITLE6=Fixstern
TTITLE7=Streicheleinheiten (Neuaufnahme)
TTITLE8=Reif für die Insel (Neuaufnahme)
TTITLE9=Positive Energie
TTITLE10=Drei Wünsche frei
TTITLE11=Du bist mir ins Gedächtnis tätowiert
TTITLE12=Dich schickt der Himmel
TTITLE13=Herrlich gefährlich
EXTD=
EXTT0=
EXTT1=
EXTT2=
EXTT3=
EXTT4=
EXTT5=
EXTT6=
EXTT7=
EXTT8=
EXTT9=
EXTT10=
EXTT11=
EXTT12=
EXTT13=
PLAYORDER=
